<svg width="214" height="190" fill="none" xmlns="http://www.w3.org/2000/svg">
  <g filter="url(#Group_29__filter0_dd)">
    <path d="M44.157 110.669H30c-11.046 0-20 8.955-20 20v24.388c0 11.045 8.954 20 20 20h14.157c11.046 0 20-8.955 20-20v-24.388c0-11.045-8.954-20-20-20z" fill="url(#Group_29__paint0_linear)"/>
    <path d="M114.138 61.962H99.981c-11.046 0-20 8.955-20 20v73.095c0 11.045 8.954 20 20 20h14.157c11.045 0 20-8.955 20-20V81.963c0-11.046-8.955-20-20-20z" fill="url(#Group_29__paint1_linear)"/>
    <path d="M183.852 6h-14.157c-11.045 0-20 8.954-20 20v129.112c0 11.046 8.955 20 20 20h14.157c11.046 0 20-8.954 20-20V26c0-11.046-8.954-20-20-20z" fill="url(#Group_29__paint2_linear)"/>
  </g>
  <defs>
    <linearGradient id="Group_29__paint0_linear" x1="37.079" y1="110.669" x2="37.079" y2="175.057" gradientUnits="userSpaceOnUse">
      <stop stop-color="#DFBFE0"/>
      <stop offset="1" stop-color="#D1A5DA"/>
    </linearGradient>
    <linearGradient id="Group_29__paint1_linear" x1="107.059" y1="61.962" x2="107.059" y2="175.057" gradientUnits="userSpaceOnUse">
      <stop stop-color="#DFBFE0"/>
      <stop offset="1" stop-color="#D1A5DA"/>
    </linearGradient>
    <linearGradient id="Group_29__paint2_linear" x1="176.774" y1="6" x2="176.774" y2="175.112" gradientUnits="userSpaceOnUse">
      <stop stop-color="#DFBFE0"/>
      <stop offset="1" stop-color="#D1A5DA"/>
    </linearGradient>
    <filter id="Group_29__filter0_dd" x="0" y="0" width="213.852" height="189.112" filterUnits="userSpaceOnUse" color-interpolation-filters="sRGB">
      <feFlood flood-opacity="0" result="BackgroundImageFix"/>
      <feColorMatrix in="SourceAlpha" values="0 0 0 0 0 0 0 0 0 0 0 0 0 0 0 0 0 0 127 0" result="hardAlpha"/>
      <feOffset dy="4"/>
      <feGaussianBlur stdDeviation="2"/>
      <feComposite in2="hardAlpha" operator="out"/>
      <feColorMatrix values="0 0 0 0 0 0 0 0 0 0 0 0 0 0 0 0 0 0 0.05 0"/>
      <feBlend in2="BackgroundImageFix" result="effect1_dropShadow"/>
      <feColorMatrix in="SourceAlpha" values="0 0 0 0 0 0 0 0 0 0 0 0 0 0 0 0 0 0 127 0" result="hardAlpha"/>
      <feOffset dy="4"/>
      <feGaussianBlur stdDeviation="5"/>
      <feComposite in2="hardAlpha" operator="out"/>
      <feColorMatrix values="0 0 0 0 0 0 0 0 0 0 0 0 0 0 0 0 0 0 0.05 0"/>
      <feBlend in2="effect1_dropShadow" result="effect2_dropShadow"/>
      <feBlend in="SourceGraphic" in2="effect2_dropShadow" result="shape"/>
    </filter>
  </defs>
</svg>
