<svg width="303" height="218" fill="none" xmlns="http://www.w3.org/2000/svg">
  <path d="M0 20C0 8.954 8.954 0 20 0h263c11.046 0 20 8.954 20 20v198H20c-11.046 0-20-8.954-20-20V20z" fill="url(#Group_42__paint0_linear)"/>
  <g filter="url(#Group_42__filter0_dd)">
    <path d="M89.157 127.669H75c-11.046 0-20 8.955-20 20v24.388c0 11.045 8.954 20 20 20h14.157c11.046 0 20-8.955 20-20v-24.388c0-11.045-8.954-20-20-20z" fill="url(#Group_42__paint1_linear)"/>
    <path d="M159.138 78.963H144.98c-11.045 0-20 8.954-20 20v73.094c0 11.045 8.955 20 20 20h14.158c11.045 0 20-8.955 20-20V98.963c0-11.046-8.955-20-20-20z" fill="url(#Group_42__paint2_linear)"/>
    <path d="M228.852 23h-14.157c-11.045 0-20 8.954-20 20v129.112c0 11.046 8.955 20 20 20h14.157c11.046 0 20-8.954 20-20V43c0-11.046-8.954-20-20-20z" fill="url(#Group_42__paint3_linear)"/>
  </g>
  <defs>
    <linearGradient id="Group_42__paint0_linear" x1="151.5" y1="0" x2="151.5" y2="218" gradientUnits="userSpaceOnUse">
      <stop stop-color="#DFBFE0"/>
      <stop offset="1" stop-color="#D2A7DB"/>
    </linearGradient>
    <linearGradient id="Group_42__paint1_linear" x1="82.079" y1="127.669" x2="82.079" y2="192.057" gradientUnits="userSpaceOnUse">
      <stop stop-color="#FCF2FC"/>
      <stop offset="1" stop-color="#F7E6FB"/>
    </linearGradient>
    <linearGradient id="Group_42__paint2_linear" x1="152.059" y1="78.963" x2="152.059" y2="192.057" gradientUnits="userSpaceOnUse">
      <stop stop-color="#FCF2FC"/>
      <stop offset="1" stop-color="#F7E6FB"/>
    </linearGradient>
    <linearGradient id="Group_42__paint3_linear" x1="221.774" y1="23" x2="221.774" y2="192.112" gradientUnits="userSpaceOnUse">
      <stop stop-color="#FCF2FC"/>
      <stop offset="1" stop-color="#F7E6FB"/>
    </linearGradient>
    <filter id="Group_42__filter0_dd" x="45" y="17" width="213.852" height="189.112" filterUnits="userSpaceOnUse" color-interpolation-filters="sRGB">
      <feFlood flood-opacity="0" result="BackgroundImageFix"/>
      <feColorMatrix in="SourceAlpha" values="0 0 0 0 0 0 0 0 0 0 0 0 0 0 0 0 0 0 127 0" result="hardAlpha"/>
      <feOffset dy="4"/>
      <feGaussianBlur stdDeviation="2"/>
      <feComposite in2="hardAlpha" operator="out"/>
      <feColorMatrix values="0 0 0 0 0 0 0 0 0 0 0 0 0 0 0 0 0 0 0.05 0"/>
      <feBlend in2="BackgroundImageFix" result="effect1_dropShadow"/>
      <feColorMatrix in="SourceAlpha" values="0 0 0 0 0 0 0 0 0 0 0 0 0 0 0 0 0 0 127 0" result="hardAlpha"/>
      <feOffset dy="4"/>
      <feGaussianBlur stdDeviation="5"/>
      <feComposite in2="hardAlpha" operator="out"/>
      <feColorMatrix values="0 0 0 0 0 0 0 0 0 0 0 0 0 0 0 0 0 0 0.05 0"/>
      <feBlend in2="effect1_dropShadow" result="effect2_dropShadow"/>
      <feBlend in="SourceGraphic" in2="effect2_dropShadow" result="shape"/>
    </filter>
  </defs>
</svg>
