<svg width="303" height="218" fill="none" xmlns="http://www.w3.org/2000/svg">
  <path d="M0 20C0 8.954 8.954 0 20 0h263c11.046 0 20 8.954 20 20v198H20c-11.046 0-20-8.954-20-20V20z" fill="url(#Group_44__paint0_linear)"/>
  <g filter="url(#Group_44__filter0_dd)">
    <path d="M151.5 193c46.668 0 84.5-37.832 84.5-84.5S198.168 24 151.5 24 67 61.832 67 108.5s37.832 84.5 84.5 84.5z" fill="url(#Group_44__paint1_linear)"/>
  </g>
  <path d="M151 109V48m0 61l27 28" stroke="#FF5C5C" stroke-width="10" stroke-linecap="round" stroke-linejoin="round"/>
  <defs>
    <linearGradient id="Group_44__paint0_linear" x1="151.5" y1="0" x2="151.5" y2="218" gradientUnits="userSpaceOnUse">
      <stop stop-color="#FFC8C6"/>
      <stop offset="1" stop-color="#FFAEAE"/>
    </linearGradient>
    <linearGradient id="Group_44__paint1_linear" x1="192.5" y1="37" x2="114.5" y2="182" gradientUnits="userSpaceOnUse">
      <stop stop-color="#FFF8F7"/>
      <stop offset="1" stop-color="#FFDFDF"/>
    </linearGradient>
    <filter id="Group_44__filter0_dd" x="57" y="18" width="189" height="189" filterUnits="userSpaceOnUse" color-interpolation-filters="sRGB">
      <feFlood flood-opacity="0" result="BackgroundImageFix"/>
      <feColorMatrix in="SourceAlpha" values="0 0 0 0 0 0 0 0 0 0 0 0 0 0 0 0 0 0 127 0" result="hardAlpha"/>
      <feOffset dy="4"/>
      <feGaussianBlur stdDeviation="2"/>
      <feComposite in2="hardAlpha" operator="out"/>
      <feColorMatrix values="0 0 0 0 0 0 0 0 0 0 0 0 0 0 0 0 0 0 0.05 0"/>
      <feBlend in2="BackgroundImageFix" result="effect1_dropShadow"/>
      <feColorMatrix in="SourceAlpha" values="0 0 0 0 0 0 0 0 0 0 0 0 0 0 0 0 0 0 127 0" result="hardAlpha"/>
      <feOffset dy="4"/>
      <feGaussianBlur stdDeviation="5"/>
      <feComposite in2="hardAlpha" operator="out"/>
      <feColorMatrix values="0 0 0 0 0 0 0 0 0 0 0 0 0 0 0 0 0 0 0.05 0"/>
      <feBlend in2="effect1_dropShadow" result="effect2_dropShadow"/>
      <feBlend in="SourceGraphic" in2="effect2_dropShadow" result="shape"/>
    </filter>
  </defs>
</svg>
